# xmcd
#
# Track frame offsets:
#	150
#	15600
#	31237
#	50664
#	72699
#	85661
#	98316
#	109802
#	124853
#	140964
#	171341
#	192370
#	213747
#	232946
#	250467
#	270429
#
# Disc length: 3926 seconds
#
# Revision: 0
# Processed by: cddbd v1.5.2PL0 Copyright (c) Steve Scherf et al.
# Submitted via: EasyCDDAExtractor 11.5.3.1
#
DISCID=e80f5410
DTITLE=Various Artist - Love Story Ballads 3
DYEAR=2001
DGENRE=Romantic
TTITLE0=P. Kaas - Le chanson simple
TTITLE1=Youssoun N'Door and N.Cherry - 7 seconds
TTITLE2=Candy Dulpher and Dave Stuart - Lily was here
TTITLE3=B. Adams and Paco de Lucia - Have You Ever Really Loved A Woman
TTITLE4=Teach-In - I'm Alone
TTITLE5=Chris Isaak - Somebody Crying
TTITLE6=Joe Dolan - You And Looking Glass
TTITLE7=Tony Carey - Room With A Wiev
TTITLE8=Ringhteous Brothers - Unchained Melody
TTITLE9=Sally Olfield - Twillight Zone
TTITLE10=Celine Dion - My Heart will be go one
TTITLE11=Guns'n'Roses - Don't Cry
TTITLE12=Elton John - Believe
TTITLE13=Chistian Wunderlich and Kristin Hall - Forever Tonight
TTITLE14=B-Charme - The Wind Of July
TTITLE15=A. Celentano - Donna
EXTD=
EXTT0=
EXTT1=
EXTT2=
EXTT3=
EXTT4=
EXTT5=
EXTT6=
EXTT7=
EXTT8=
EXTT9=
EXTT10=
EXTT11=
EXTT12=
EXTT13=
EXTT14=
EXTT15=
PLAYORDER=
